<?xml version="1.0" standalone="no"?>
<!DOCTYPE svg PUBLIC "-//W3C//DTD SVG 20010904//EN"
 "http://www.w3.org/TR/2001/REC-SVG-20010904/DTD/svg10.dtd">
<svg version="1.0" xmlns="http://www.w3.org/2000/svg"
 width="129.000000pt" height="129.000000pt" viewBox="0 0 129.000000 129.000000"
 preserveAspectRatio="xMidYMid meet">
<metadata>
Created by potrace 1.11, written by Peter Selinger 2001-2013
</metadata>
<g transform="translate(0.000000,129.000000) scale(0.100000,-0.100000)"
fill="#000000" stroke="none">
<path d="M548 1145 c-2 -2 -19 -7 -38 -10 -56 -10 -167 -76 -225 -133 -53 -54
-118 -166 -131 -227 -3 -16 -8 -61 -11 -99 -15 -213 113 -414 317 -500 l36
-14 2 63 c3 78 -4 95 -64 169 l-48 58 -1 159 c0 143 -2 160 -17 165 -10 3 -18
10 -18 15 0 6 -5 7 -10 4 -6 -4 -10 -3 -8 2 1 4 -2 27 -6 50 -11 61 17 98 83
109 24 4 79 -23 90 -44 26 -48 0 -126 -46 -143 -8 -3 -12 -44 -14 -114 -3
-172 -5 -166 56 -244 l55 -71 2 -97 c3 -83 5 -96 21 -99 10 -1 17 4 18 14 0
10 1 99 3 200 2 175 1 184 -18 194 -33 18 -44 33 -50 68 -6 41 13 81 48 99 31
17 93 8 117 -16 39 -40 26 -128 -21 -153 -19 -10 -20 -21 -20 -210 0 -177 2
-200 16 -200 9 0 47 33 85 73 l69 72 -1 88 c-1 67 -4 87 -15 87 -32 0 -69 119
-42 136 5 3 5 11 2 17 -4 7 -4 9 1 5 4 -4 17 -1 29 7 33 24 93 19 121 -10 24
-23 28 -33 28 -70 0 -36 -5 -46 -34 -73 -31 -29 -32 -31 -30 -115 2 -74 -1
-91 -21 -122 -13 -19 -31 -38 -41 -41 -9 -3 -15 -9 -12 -14 3 -5 -3 -11 -12
-13 -16 -4 -16 -5 -1 -6 19 -1 131 56 167 84 85 70 159 177 177 257 2 10 7 28
10 41 24 92 5 237 -45 335 -29 57 -45 53 -19 -5 32 -72 36 -201 9 -277 -36
-103 -80 -133 -51 -34 14 44 18 84 16 142 -3 85 -30 171 -50 163 -7 -3 -26 1
-44 8 -34 15 -48 48 -39 94 5 22 0 34 -21 54 -38 35 -119 82 -174 101 -45 15
-171 30 -180 21z"/>
<path d="M398 903 c-27 -7 -34 -50 -13 -73 10 -11 23 -20 30 -20 19 0 47 37
43 56 -4 21 -38 42 -60 37z"/>
<path d="M598 669 c-25 -14 -23 -56 2 -69 22 -12 60 -5 60 10 0 5 3 15 6 23 6
16 -20 47 -39 47 -7 0 -20 -5 -29 -11z"/>
<path d="M821 579 c-14 -15 -17 -27 -12 -42 17 -47 62 -48 83 -2 9 21 8 28 -7
45 -23 26 -39 25 -64 -1z"/>
</g>
</svg>
